<?xml version="1.0" encoding="UTF-8" standalone="no"?>
<!DOCTYPE svg PUBLIC "-//W3C//DTD SVG 1.1//EN"
 "http://www.w3.org/Graphics/SVG/1.1/DTD/svg11.dtd">
<!-- Generated by graphviz version 13.1.0 (20250701.0955)
 -->
<!-- Title: interface/driver_adxl345_interface.h Pages: 1 -->
<svg width="1021pt" height="176pt"
 viewBox="0.00 0.00 1021.00 176.00" xmlns="http://www.w3.org/2000/svg" xmlns:xlink="http://www.w3.org/1999/xlink">
<g id="graph0" class="graph" transform="scale(1 1) rotate(0) translate(4 172)">
<title>interface/driver_adxl345_interface.h</title>
<!-- Node1 -->
<g id="Node000001" class="node">
<title>Node1</title>
<g id="a_Node000001"><a xlink:title="driver adxl345 interface header file">
<polygon fill="#999999" stroke="#666666" points="593.12,-168 473.62,-168 473.62,-136 593.12,-136 593.12,-168"/>
<text xml:space="preserve" text-anchor="start" x="481.62" y="-154.5" font-family="Helvetica,sans-Serif" font-size="10.00">interface/driver_adxl345</text>
<text xml:space="preserve" text-anchor="middle" x="533.38" y="-142.5" font-family="Helvetica,sans-Serif" font-size="10.00">_interface.h</text>
</a>
</g>
</g>
<!-- Node2 -->
<g id="Node000002" class="node">
<title>Node2</title>
<g id="a_Node000002"><a xlink:href="driver__adxl345__basic_8h.html" target="_top" xlink:title="driver adxl345 basic header file">
<polygon fill="white" stroke="#666666" points="118.75,-100 0,-100 0,-68 118.75,-68 118.75,-100"/>
<text xml:space="preserve" text-anchor="start" x="8" y="-86.5" font-family="Helvetica,sans-Serif" font-size="10.00">example/driver_adxl345</text>
<text xml:space="preserve" text-anchor="middle" x="59.38" y="-74.5" font-family="Helvetica,sans-Serif" font-size="10.00">_basic.h</text>
</a>
</g>
</g>
<!-- Node1&#45;&gt;Node2 -->
<g id="edge1_Node000001_Node000002" class="edge">
<title>Node1&#45;&gt;Node2</title>
<g id="a_edge1_Node000001_Node000002"><a xlink:title=" ">
<path fill="none" stroke="#63b8ff" d="M462.36,-143.99C381.28,-135.53 244.79,-119.94 128.38,-100 125.35,-99.48 122.27,-98.92 119.15,-98.33"/>
<polygon fill="#63b8ff" stroke="#63b8ff" points="461.62,-147.43 471.92,-144.98 462.34,-140.47 461.62,-147.43"/>
</a>
</g>
</g>
<!-- Node4 -->
<g id="Node000004" class="node">
<title>Node4</title>
<g id="a_Node000004"><a xlink:href="driver__adxl345__fifo_8h.html" target="_top" xlink:title="driver adxl345 fifo header file">
<polygon fill="white" stroke="#666666" points="255.75,-100 137,-100 137,-68 255.75,-68 255.75,-100"/>
<text xml:space="preserve" text-anchor="start" x="145" y="-86.5" font-family="Helvetica,sans-Serif" font-size="10.00">example/driver_adxl345</text>
<text xml:space="preserve" text-anchor="middle" x="196.38" y="-74.5" font-family="Helvetica,sans-Serif" font-size="10.00">_fifo.h</text>
</a>
</g>
</g>
<!-- Node1&#45;&gt;Node4 -->
<g id="edge3_Node000001_Node000004" class="edge">
<title>Node1&#45;&gt;Node4</title>
<g id="a_edge3_Node000001_Node000004"><a xlink:title=" ">
<path fill="none" stroke="#63b8ff" d="M461.96,-137.93C407.91,-127.92 331.88,-113.55 265.38,-100 262.37,-99.39 259.3,-98.75 256.19,-98.1"/>
<polygon fill="#63b8ff" stroke="#63b8ff" points="461.19,-141.35 471.66,-139.73 462.46,-134.47 461.19,-141.35"/>
</a>
</g>
</g>
<!-- Node6 -->
<g id="Node000006" class="node">
<title>Node6</title>
<g id="a_Node000006"><a xlink:href="driver__adxl345__interrupt_8h.html" target="_top" xlink:title="driver adxl345 interrupt header file">
<polygon fill="white" stroke="#666666" points="392.75,-100 274,-100 274,-68 392.75,-68 392.75,-100"/>
<text xml:space="preserve" text-anchor="start" x="282" y="-86.5" font-family="Helvetica,sans-Serif" font-size="10.00">example/driver_adxl345</text>
<text xml:space="preserve" text-anchor="middle" x="333.38" y="-74.5" font-family="Helvetica,sans-Serif" font-size="10.00">_interrupt.h</text>
</a>
</g>
</g>
<!-- Node1&#45;&gt;Node6 -->
<g id="edge5_Node000001_Node000006" class="edge">
<title>Node1&#45;&gt;Node6</title>
<g id="a_edge5_Node000001_Node000006"><a xlink:title=" ">
<path fill="none" stroke="#63b8ff" d="M475.65,-131.95C445.39,-121.97 408.81,-109.89 380.32,-100.49"/>
<polygon fill="#63b8ff" stroke="#63b8ff" points="474.45,-135.24 485.05,-135.05 476.65,-128.59 474.45,-135.24"/>
</a>
</g>
</g>
<!-- Node8 -->
<g id="Node000008" class="node">
<title>Node8</title>
<g id="a_Node000008"><a xlink:href="driver__adxl345__interface__template_8c.html" target="_top" xlink:title="driver adxl345 interface template source file">
<polygon fill="white" stroke="#666666" points="530.12,-100 410.62,-100 410.62,-68 530.12,-68 530.12,-100"/>
<text xml:space="preserve" text-anchor="start" x="418.62" y="-86.5" font-family="Helvetica,sans-Serif" font-size="10.00">interface/driver_adxl345</text>
<text xml:space="preserve" text-anchor="middle" x="470.38" y="-74.5" font-family="Helvetica,sans-Serif" font-size="10.00">_interface_template.c</text>
</a>
</g>
</g>
<!-- Node1&#45;&gt;Node8 -->
<g id="edge7_Node000001_Node000008" class="edge">
<title>Node1&#45;&gt;Node8</title>
<g id="a_edge7_Node000001_Node000008"><a xlink:title=" ">
<path fill="none" stroke="#63b8ff" d="M510.88,-127.43C502.23,-118.38 492.61,-108.29 484.91,-100.22"/>
<polygon fill="#63b8ff" stroke="#63b8ff" points="508.28,-129.78 517.72,-134.6 513.35,-124.95 508.28,-129.78"/>
</a>
</g>
</g>
<!-- Node9 -->
<g id="Node000009" class="node">
<title>Node9</title>
<g id="a_Node000009"><a xlink:href="driver__adxl345__fifo__test_8h.html" target="_top" xlink:title="driver adxl345 fifo test header file">
<polygon fill="white" stroke="#666666" points="646.62,-100 548.12,-100 548.12,-68 646.62,-68 646.62,-100"/>
<text xml:space="preserve" text-anchor="start" x="556.12" y="-86.5" font-family="Helvetica,sans-Serif" font-size="10.00">test/driver_adxl345</text>
<text xml:space="preserve" text-anchor="middle" x="597.38" y="-74.5" font-family="Helvetica,sans-Serif" font-size="10.00">_fifo_test.h</text>
</a>
</g>
</g>
<!-- Node1&#45;&gt;Node9 -->
<g id="edge8_Node000001_Node000009" class="edge">
<title>Node1&#45;&gt;Node9</title>
<g id="a_edge8_Node000001_Node000009"><a xlink:title=" ">
<path fill="none" stroke="#63b8ff" d="M556.23,-127.43C565.01,-118.38 574.79,-108.29 582.61,-100.22"/>
<polygon fill="#63b8ff" stroke="#63b8ff" points="553.72,-124.99 549.27,-134.61 558.75,-129.86 553.72,-124.99"/>
</a>
</g>
</g>
<!-- Node11 -->
<g id="Node000011" class="node">
<title>Node11</title>
<g id="a_Node000011"><a xlink:href="driver__adxl345__read__test_8h.html" target="_top" xlink:title="driver adxl345 read test header file">
<polygon fill="white" stroke="#666666" points="763.62,-100 665.12,-100 665.12,-68 763.62,-68 763.62,-100"/>
<text xml:space="preserve" text-anchor="start" x="673.12" y="-86.5" font-family="Helvetica,sans-Serif" font-size="10.00">test/driver_adxl345</text>
<text xml:space="preserve" text-anchor="middle" x="714.38" y="-74.5" font-family="Helvetica,sans-Serif" font-size="10.00">_read_test.h</text>
</a>
</g>
</g>
<!-- Node1&#45;&gt;Node11 -->
<g id="edge10_Node000001_Node000011" class="edge">
<title>Node1&#45;&gt;Node11</title>
<g id="a_edge10_Node000001_Node000011"><a xlink:title=" ">
<path fill="none" stroke="#63b8ff" d="M586.34,-131.69C613.58,-121.76 646.33,-109.81 671.89,-100.49"/>
<polygon fill="#63b8ff" stroke="#63b8ff" points="585.43,-128.29 577.23,-135.01 587.83,-134.87 585.43,-128.29"/>
</a>
</g>
</g>
<!-- Node13 -->
<g id="Node000013" class="node">
<title>Node13</title>
<g id="a_Node000013"><a xlink:href="driver__adxl345__register__test_8h.html" target="_top" xlink:title="driver adxl345 register test header file">
<polygon fill="white" stroke="#666666" points="880.62,-100 782.12,-100 782.12,-68 880.62,-68 880.62,-100"/>
<text xml:space="preserve" text-anchor="start" x="790.12" y="-86.5" font-family="Helvetica,sans-Serif" font-size="10.00">test/driver_adxl345</text>
<text xml:space="preserve" text-anchor="middle" x="831.38" y="-74.5" font-family="Helvetica,sans-Serif" font-size="10.00">_register_test.h</text>
</a>
</g>
</g>
<!-- Node1&#45;&gt;Node13 -->
<g id="edge12_Node000001_Node000013" class="edge">
<title>Node1&#45;&gt;Node13</title>
<g id="a_edge12_Node000001_Node000013"><a xlink:title=" ">
<path fill="none" stroke="#63b8ff" d="M604.55,-136.56C652.16,-126.72 716.15,-113.14 772.38,-100 775.46,-99.28 778.64,-98.52 781.83,-97.74"/>
<polygon fill="#63b8ff" stroke="#63b8ff" points="604,-133.1 594.92,-138.55 605.42,-139.96 604,-133.1"/>
</a>
</g>
</g>
<!-- Node15 -->
<g id="Node000015" class="node">
<title>Node15</title>
<g id="a_Node000015"><a xlink:href="driver__adxl345__tap__action__fall__test_8h.html" target="_top" xlink:title="driver adxl345 tap action fall test header file">
<polygon fill="white" stroke="#666666" points="1012.5,-100 898.25,-100 898.25,-68 1012.5,-68 1012.5,-100"/>
<text xml:space="preserve" text-anchor="start" x="906.25" y="-86.5" font-family="Helvetica,sans-Serif" font-size="10.00">test/driver_adxl345</text>
<text xml:space="preserve" text-anchor="middle" x="955.38" y="-74.5" font-family="Helvetica,sans-Serif" font-size="10.00">_tap_action_fall_test.h</text>
</a>
</g>
</g>
<!-- Node1&#45;&gt;Node15 -->
<g id="edge14_Node000001_Node000015" class="edge">
<title>Node1&#45;&gt;Node15</title>
<g id="a_edge14_Node000001_Node000015"><a xlink:title=" ">
<path fill="none" stroke="#63b8ff" d="M604.65,-142.52C676.72,-133.54 791.18,-118.16 889.38,-100 892.15,-99.49 894.98,-98.94 897.84,-98.37"/>
<polygon fill="#63b8ff" stroke="#63b8ff" points="604.45,-139.02 594.96,-143.72 605.31,-145.96 604.45,-139.02"/>
</a>
</g>
</g>
<!-- Node3 -->
<g id="Node000003" class="node">
<title>Node3</title>
<g id="a_Node000003"><a xlink:href="driver__adxl345__basic_8c.html" target="_top" xlink:title="driver adxl345 basic source file">
<polygon fill="white" stroke="#666666" points="118.75,-32 0,-32 0,0 118.75,0 118.75,-32"/>
<text xml:space="preserve" text-anchor="start" x="8" y="-18.5" font-family="Helvetica,sans-Serif" font-size="10.00">example/driver_adxl345</text>
<text xml:space="preserve" text-anchor="middle" x="59.38" y="-6.5" font-family="Helvetica,sans-Serif" font-size="10.00">_basic.c</text>
</a>
</g>
</g>
<!-- Node2&#45;&gt;Node3 -->
<g id="edge2_Node000002_Node000003" class="edge">
<title>Node2&#45;&gt;Node3</title>
<g id="a_edge2_Node000002_Node000003"><a xlink:title=" ">
<path fill="none" stroke="#63b8ff" d="M59.38,-56.31C59.38,-48.12 59.38,-39.38 59.38,-32.22"/>
<polygon fill="#63b8ff" stroke="#63b8ff" points="55.88,-56.18 59.38,-66.18 62.88,-56.18 55.88,-56.18"/>
</a>
</g>
</g>
<!-- Node5 -->
<g id="Node000005" class="node">
<title>Node5</title>
<g id="a_Node000005"><a xlink:href="driver__adxl345__fifo_8c.html" target="_top" xlink:title="driver adxl345 fifo source file">
<polygon fill="white" stroke="#666666" points="255.75,-32 137,-32 137,0 255.75,0 255.75,-32"/>
<text xml:space="preserve" text-anchor="start" x="145" y="-18.5" font-family="Helvetica,sans-Serif" font-size="10.00">example/driver_adxl345</text>
<text xml:space="preserve" text-anchor="middle" x="196.38" y="-6.5" font-family="Helvetica,sans-Serif" font-size="10.00">_fifo.c</text>
</a>
</g>
</g>
<!-- Node4&#45;&gt;Node5 -->
<g id="edge4_Node000004_Node000005" class="edge">
<title>Node4&#45;&gt;Node5</title>
<g id="a_edge4_Node000004_Node000005"><a xlink:title=" ">
<path fill="none" stroke="#63b8ff" d="M196.38,-56.31C196.38,-48.12 196.38,-39.38 196.38,-32.22"/>
<polygon fill="#63b8ff" stroke="#63b8ff" points="192.88,-56.18 196.38,-66.18 199.88,-56.18 192.88,-56.18"/>
</a>
</g>
</g>
<!-- Node7 -->
<g id="Node000007" class="node">
<title>Node7</title>
<g id="a_Node000007"><a xlink:href="driver__adxl345__interrupt_8c.html" target="_top" xlink:title="driver adxl345 interrupt source file">
<polygon fill="white" stroke="#666666" points="392.75,-32 274,-32 274,0 392.75,0 392.75,-32"/>
<text xml:space="preserve" text-anchor="start" x="282" y="-18.5" font-family="Helvetica,sans-Serif" font-size="10.00">example/driver_adxl345</text>
<text xml:space="preserve" text-anchor="middle" x="333.38" y="-6.5" font-family="Helvetica,sans-Serif" font-size="10.00">_interrupt.c</text>
</a>
</g>
</g>
<!-- Node6&#45;&gt;Node7 -->
<g id="edge6_Node000006_Node000007" class="edge">
<title>Node6&#45;&gt;Node7</title>
<g id="a_edge6_Node000006_Node000007"><a xlink:title=" ">
<path fill="none" stroke="#63b8ff" d="M333.38,-56.31C333.38,-48.12 333.38,-39.38 333.38,-32.22"/>
<polygon fill="#63b8ff" stroke="#63b8ff" points="329.88,-56.18 333.38,-66.18 336.88,-56.18 329.88,-56.18"/>
</a>
</g>
</g>
<!-- Node10 -->
<g id="Node000010" class="node">
<title>Node10</title>
<g id="a_Node000010"><a xlink:href="driver__adxl345__fifo__test_8c.html" target="_top" xlink:title="driver adxl345 fifo test source file">
<polygon fill="white" stroke="#666666" points="646.62,-32 548.12,-32 548.12,0 646.62,0 646.62,-32"/>
<text xml:space="preserve" text-anchor="start" x="556.12" y="-18.5" font-family="Helvetica,sans-Serif" font-size="10.00">test/driver_adxl345</text>
<text xml:space="preserve" text-anchor="middle" x="597.38" y="-6.5" font-family="Helvetica,sans-Serif" font-size="10.00">_fifo_test.c</text>
</a>
</g>
</g>
<!-- Node9&#45;&gt;Node10 -->
<g id="edge9_Node000009_Node000010" class="edge">
<title>Node9&#45;&gt;Node10</title>
<g id="a_edge9_Node000009_Node000010"><a xlink:title=" ">
<path fill="none" stroke="#63b8ff" d="M597.38,-56.31C597.38,-48.12 597.38,-39.38 597.38,-32.22"/>
<polygon fill="#63b8ff" stroke="#63b8ff" points="593.88,-56.18 597.38,-66.18 600.88,-56.18 593.88,-56.18"/>
</a>
</g>
</g>
<!-- Node12 -->
<g id="Node000012" class="node">
<title>Node12</title>
<g id="a_Node000012"><a xlink:href="driver__adxl345__read__test_8c.html" target="_top" xlink:title="driver adxl345 read test source file">
<polygon fill="white" stroke="#666666" points="763.62,-32 665.12,-32 665.12,0 763.62,0 763.62,-32"/>
<text xml:space="preserve" text-anchor="start" x="673.12" y="-18.5" font-family="Helvetica,sans-Serif" font-size="10.00">test/driver_adxl345</text>
<text xml:space="preserve" text-anchor="middle" x="714.38" y="-6.5" font-family="Helvetica,sans-Serif" font-size="10.00">_read_test.c</text>
</a>
</g>
</g>
<!-- Node11&#45;&gt;Node12 -->
<g id="edge11_Node000011_Node000012" class="edge">
<title>Node11&#45;&gt;Node12</title>
<g id="a_edge11_Node000011_Node000012"><a xlink:title=" ">
<path fill="none" stroke="#63b8ff" d="M714.38,-56.31C714.38,-48.12 714.38,-39.38 714.38,-32.22"/>
<polygon fill="#63b8ff" stroke="#63b8ff" points="710.88,-56.18 714.38,-66.18 717.88,-56.18 710.88,-56.18"/>
</a>
</g>
</g>
<!-- Node14 -->
<g id="Node000014" class="node">
<title>Node14</title>
<g id="a_Node000014"><a xlink:href="driver__adxl345__register__test_8c.html" target="_top" xlink:title="driver adxl345 register test source file">
<polygon fill="white" stroke="#666666" points="880.62,-32 782.12,-32 782.12,0 880.62,0 880.62,-32"/>
<text xml:space="preserve" text-anchor="start" x="790.12" y="-18.5" font-family="Helvetica,sans-Serif" font-size="10.00">test/driver_adxl345</text>
<text xml:space="preserve" text-anchor="middle" x="831.38" y="-6.5" font-family="Helvetica,sans-Serif" font-size="10.00">_register_test.c</text>
</a>
</g>
</g>
<!-- Node13&#45;&gt;Node14 -->
<g id="edge13_Node000013_Node000014" class="edge">
<title>Node13&#45;&gt;Node14</title>
<g id="a_edge13_Node000013_Node000014"><a xlink:title=" ">
<path fill="none" stroke="#63b8ff" d="M831.38,-56.31C831.38,-48.12 831.38,-39.38 831.38,-32.22"/>
<polygon fill="#63b8ff" stroke="#63b8ff" points="827.88,-56.18 831.38,-66.18 834.88,-56.18 827.88,-56.18"/>
</a>
</g>
</g>
<!-- Node16 -->
<g id="Node000016" class="node">
<title>Node16</title>
<g id="a_Node000016"><a xlink:href="driver__adxl345__tap__action__fall__test_8c.html" target="_top" xlink:title="driver adxl345 tap action fall test source file">
<polygon fill="white" stroke="#666666" points="1012.5,-32 898.25,-32 898.25,0 1012.5,0 1012.5,-32"/>
<text xml:space="preserve" text-anchor="start" x="906.25" y="-18.5" font-family="Helvetica,sans-Serif" font-size="10.00">test/driver_adxl345</text>
<text xml:space="preserve" text-anchor="middle" x="955.38" y="-6.5" font-family="Helvetica,sans-Serif" font-size="10.00">_tap_action_fall_test.c</text>
</a>
</g>
</g>
<!-- Node15&#45;&gt;Node16 -->
<g id="edge15_Node000015_Node000016" class="edge">
<title>Node15&#45;&gt;Node16</title>
<g id="a_edge15_Node000015_Node000016"><a xlink:title=" ">
<path fill="none" stroke="#63b8ff" d="M955.38,-56.31C955.38,-48.12 955.38,-39.38 955.38,-32.22"/>
<polygon fill="#63b8ff" stroke="#63b8ff" points="951.88,-56.18 955.38,-66.18 958.88,-56.18 951.88,-56.18"/>
</a>
</g>
</g>
</g>
</svg>
