<?xml version="1.0" encoding="UTF-8" standalone="no"?>
<!DOCTYPE svg PUBLIC "-//W3C//DTD SVG 1.1//EN"
 "http://www.w3.org/Graphics/SVG/1.1/DTD/svg11.dtd">
<!-- Generated by graphviz version 13.1.0 (20250701.0955)
 -->
<!-- Title: adxl345 driver function Pages: 1 -->
<svg width="276pt" height="390pt"
 viewBox="0.00 0.00 276.00 390.00" xmlns="http://www.w3.org/2000/svg" xmlns:xlink="http://www.w3.org/1999/xlink">
<g id="graph0" class="graph" transform="scale(1 1) rotate(0) translate(4 386)">
<title>adxl345 driver function</title>
<!-- Node3 -->
<g id="Node000003" class="node">
<title>Node3</title>
<g id="a_Node000003"><a xlink:href="group__adxl345__basic__driver.html" target="_top" xlink:title="adxl345 basic driver modules">
<polygon fill="white" stroke="#666666" points="260.38,-382 157.38,-382 157.38,-350 260.38,-350 260.38,-382"/>
<text xml:space="preserve" text-anchor="start" x="165.38" y="-368.5" font-family="Helvetica,sans-Serif" font-size="10.00">adxl345 basic driver</text>
<text xml:space="preserve" text-anchor="middle" x="208.88" y="-356.5" font-family="Helvetica,sans-Serif" font-size="10.00"> function</text>
</a>
</g>
</g>
<!-- Node1 -->
<g id="Node000001" class="node">
<title>Node1</title>
<g id="a_Node000001"><a xlink:title="adxl345 driver modules">
<polygon fill="#999999" stroke="#666666" points="114.25,-201 0,-201 0,-181 114.25,-181 114.25,-201"/>
<text xml:space="preserve" text-anchor="middle" x="57.12" y="-187.5" font-family="Helvetica,sans-Serif" font-size="10.00">adxl345 driver function</text>
</a>
</g>
</g>
<!-- Node1&#45;&gt;Node3 -->
<g id="edge2" class="edge">
<title>Node1&#45;&gt;Node3</title>
<path fill="none" stroke="black" d="M66.09,-211.87C79.19,-243.67 108.09,-304.41 150.25,-341 153.96,-344.22 158.14,-347.07 162.52,-349.6"/>
<polygon fill="black" stroke="black" points="69.36,-210.61 62.41,-202.62 62.86,-213.2 69.36,-210.61"/>
</g>
<!-- Node8 -->
<g id="Node000008" class="node">
<title>Node8</title>
<g id="a_Node000008"><a xlink:href="group__adxl345__example__driver.html" target="_top" xlink:title="adxl345 example driver modules">
<polygon fill="white" stroke="#666666" points="267.12,-332 150.62,-332 150.62,-300 267.12,-300 267.12,-332"/>
<text xml:space="preserve" text-anchor="start" x="158.62" y="-318.5" font-family="Helvetica,sans-Serif" font-size="10.00">adxl345 example driver</text>
<text xml:space="preserve" text-anchor="middle" x="208.88" y="-306.5" font-family="Helvetica,sans-Serif" font-size="10.00"> function</text>
</a>
</g>
</g>
<!-- Node1&#45;&gt;Node8 -->
<g id="edge7" class="edge">
<title>Node1&#45;&gt;Node8</title>
<path fill="none" stroke="black" d="M72.03,-210.43C88.57,-232.41 118.05,-268.11 150.25,-291 154.69,-294.16 159.6,-297.04 164.62,-299.62"/>
<polygon fill="black" stroke="black" points="75.02,-208.59 66.27,-202.61 69.38,-212.74 75.02,-208.59"/>
</g>
<!-- Node6 -->
<g id="Node000006" class="node">
<title>Node6</title>
<g id="a_Node000006"><a xlink:href="group__adxl345__extern__driver.html" target="_top" xlink:title="adxl345 extern driver modules">
<polygon fill="white" stroke="#666666" points="262.25,-282 155.5,-282 155.5,-250 262.25,-250 262.25,-282"/>
<text xml:space="preserve" text-anchor="start" x="163.5" y="-268.5" font-family="Helvetica,sans-Serif" font-size="10.00">adxl345 extern driver</text>
<text xml:space="preserve" text-anchor="middle" x="208.88" y="-256.5" font-family="Helvetica,sans-Serif" font-size="10.00"> function</text>
</a>
</g>
</g>
<!-- Node1&#45;&gt;Node6 -->
<g id="edge5" class="edge">
<title>Node1&#45;&gt;Node6</title>
<path fill="none" stroke="black" d="M86.12,-207.02C104.2,-217.17 128.37,-230.34 150.25,-241 156.13,-243.87 162.42,-246.76 168.61,-249.52"/>
<polygon fill="black" stroke="black" points="87.98,-204.06 77.55,-202.19 84.53,-210.15 87.98,-204.06"/>
</g>
<!-- Node5 -->
<g id="Node000005" class="node">
<title>Node5</title>
<g id="a_Node000005"><a xlink:href="group__adxl345__fifo__driver.html" target="_top" xlink:title="adxl345 fifo driver modules">
<polygon fill="white" stroke="#666666" points="255.5,-232 162.25,-232 162.25,-200 255.5,-200 255.5,-232"/>
<text xml:space="preserve" text-anchor="start" x="170.25" y="-218.5" font-family="Helvetica,sans-Serif" font-size="10.00">adxl345 fifo driver</text>
<text xml:space="preserve" text-anchor="middle" x="208.88" y="-206.5" font-family="Helvetica,sans-Serif" font-size="10.00"> function</text>
</a>
</g>
</g>
<!-- Node1&#45;&gt;Node5 -->
<g id="edge4" class="edge">
<title>Node1&#45;&gt;Node5</title>
<path fill="none" stroke="black" d="M125.83,-202.3C138.04,-204.34 150.49,-206.42 161.9,-208.32"/>
<polygon fill="black" stroke="black" points="126.67,-198.9 116.23,-200.7 125.52,-205.8 126.67,-198.9"/>
</g>
<!-- Node7 -->
<g id="Node000007" class="node">
<title>Node7</title>
<g id="a_Node000007"><a xlink:href="group__adxl345__interface__driver.html" target="_top" xlink:title="adxl345 interface driver modules">
<polygon fill="white" stroke="#666666" points="267.5,-182 150.25,-182 150.25,-150 267.5,-150 267.5,-182"/>
<text xml:space="preserve" text-anchor="start" x="158.25" y="-168.5" font-family="Helvetica,sans-Serif" font-size="10.00">adxl345 interface driver</text>
<text xml:space="preserve" text-anchor="middle" x="208.88" y="-156.5" font-family="Helvetica,sans-Serif" font-size="10.00"> function</text>
</a>
</g>
</g>
<!-- Node1&#45;&gt;Node7 -->
<g id="edge6" class="edge">
<title>Node1&#45;&gt;Node7</title>
<path fill="none" stroke="black" d="M126.03,-179.66C134.1,-178.32 142.28,-176.95 150.19,-175.63"/>
<polygon fill="black" stroke="black" points="125.52,-176.2 116.23,-181.3 126.67,-183.1 125.52,-176.2"/>
</g>
<!-- Node4 -->
<g id="Node000004" class="node">
<title>Node4</title>
<g id="a_Node000004"><a xlink:href="group__adxl345__interrupt__driver.html" target="_top" xlink:title="adxl345 interrupt driver modules">
<polygon fill="white" stroke="#666666" points="266.38,-132 151.38,-132 151.38,-100 266.38,-100 266.38,-132"/>
<text xml:space="preserve" text-anchor="start" x="159.38" y="-118.5" font-family="Helvetica,sans-Serif" font-size="10.00">adxl345 interrupt driver</text>
<text xml:space="preserve" text-anchor="middle" x="208.88" y="-106.5" font-family="Helvetica,sans-Serif" font-size="10.00"> function</text>
</a>
</g>
</g>
<!-- Node1&#45;&gt;Node4 -->
<g id="edge3" class="edge">
<title>Node1&#45;&gt;Node4</title>
<path fill="none" stroke="black" d="M86.12,-174.98C104.2,-164.83 128.37,-151.66 150.25,-141 156.13,-138.13 162.42,-135.24 168.61,-132.48"/>
<polygon fill="black" stroke="black" points="84.53,-171.85 77.55,-179.81 87.98,-177.94 84.53,-171.85"/>
</g>
<!-- Node2 -->
<g id="Node000002" class="node">
<title>Node2</title>
<g id="a_Node000002"><a xlink:href="group__adxl345__link__driver.html" target="_top" xlink:title="adxl345 link driver modules">
<polygon fill="white" stroke="#666666" points="256.25,-82 161.5,-82 161.5,-50 256.25,-50 256.25,-82"/>
<text xml:space="preserve" text-anchor="start" x="169.5" y="-68.5" font-family="Helvetica,sans-Serif" font-size="10.00">adxl345 link driver</text>
<text xml:space="preserve" text-anchor="middle" x="208.88" y="-56.5" font-family="Helvetica,sans-Serif" font-size="10.00"> function</text>
</a>
</g>
</g>
<!-- Node1&#45;&gt;Node2 -->
<g id="edge1" class="edge">
<title>Node1&#45;&gt;Node2</title>
<path fill="none" stroke="black" d="M72.03,-171.57C88.57,-149.59 118.05,-113.89 150.25,-91 154.69,-87.84 159.6,-84.96 164.62,-82.38"/>
<polygon fill="black" stroke="black" points="69.38,-169.26 66.27,-179.39 75.02,-173.41 69.38,-169.26"/>
</g>
<!-- Node9 -->
<g id="Node000009" class="node">
<title>Node9</title>
<g id="a_Node000009"><a xlink:href="group__adxl345__test__driver.html" target="_top" xlink:title="adxl345 test driver modules">
<polygon fill="white" stroke="#666666" points="257,-32 160.75,-32 160.75,0 257,0 257,-32"/>
<text xml:space="preserve" text-anchor="start" x="168.75" y="-18.5" font-family="Helvetica,sans-Serif" font-size="10.00">adxl345 test driver</text>
<text xml:space="preserve" text-anchor="middle" x="208.88" y="-6.5" font-family="Helvetica,sans-Serif" font-size="10.00"> function</text>
</a>
</g>
</g>
<!-- Node1&#45;&gt;Node9 -->
<g id="edge8" class="edge">
<title>Node1&#45;&gt;Node9</title>
<path fill="none" stroke="black" d="M66.09,-170.13C79.19,-138.33 108.09,-77.59 150.25,-41 153.96,-37.78 158.14,-34.93 162.52,-32.4"/>
<polygon fill="black" stroke="black" points="62.86,-168.8 62.41,-179.38 69.36,-171.39 62.86,-168.8"/>
</g>
</g>
</svg>
